<svg viewBox="0 0 320 512" fill="#00AAFF" xmlns="http://www.w3.org/2000/svg">
    <path d="M307 253q-45-4-83-24-3-2-7.5-4.5T209 221q-2 1-4.5 2.5l-5 3Q197 228 195 229q-3 1-7 1-7 0-7-8 0-6 6-8 1-1 3-2t3-2q-3-2-7.5-5.5T179 199q-3 2-7.5 4.5T164 207q-1 2-7 2t-8-7v-2-2q0-1 1-3l1-1 1-1 1-1 1-1 2-1q5-2 6-4 2-1 3-1-1-2-4-4t-4-3q-6-4-12-4-2 0-4-.5t-4 0q-2 .5-4 .5t-3.5 1q-1.5 1-3.5 2l-4 2q-2 3-4 3-18 11-33 15 3 1 6 2.5t5.5 2.5q2.5 1 5.5 2t5.5 2q2.5 1 5.5 2.5t5.5 3l5 3 5 3 5 3q2.5 1.5 5 3.5t5 3.5 5 3.5q2.5 2 4.5 4l4.5 4.5q1.5 1.5 4 3.5t4.5 4l4 4q4 3 9 6.5l10 7q5 3.5 10 7.5t10 7q5 3 8.5 5.5t5.5 4.5l2 1q24 0 47-4 23-5 35-15 11-9 0-18zm-179 25q-3 0-50-7-13-2-15-2-12-2-46-2-5-2-6-6-4-8-7-30-2-16 4-32 4-12 12-20l3-2q1-2 2.5-2t3 1q1.5 1 2.5 3 0 2 1.5 6t2.5 6q0 1 .5 2t1.5 2q2 3 7 8 3 3 5 4 11 8 52 43 28 27 27 28zm-75 36q-10-1-19.5-2T18 309.5L8 307q-4-1-6-2H0q9-19 12-20 19-4 73 2 5 1 17 2.5t24.5 3.5q12.5 2 17.5 2 69 14 117 6 3-1 5-1.5t4.5-1 4.5-1l4-1q2-.5 4.5-1.5t4.5-1.5 4.5-1.5q2.5-1 4-1.5l4.5-1.5q3-1 4-2 1 0 5-2t6-2h4q-1 4-12.5 10.5t-28.5 12q-17 5.5-34 7.5-29 3-90.5 3.5T53 314zm130-24q-2 0-6-.5t-6-.5q-2 0-3.5-.5t-3.5-1q-2-.5-3-.5h-1q-2-2-6.5-7t-6.5-7q-19-18-38-34-4-3-8-6.5t-8.5-6.5q-4.5-3-9-5.5T75 215q-2 0-5.5-2t-5.5-3q1 0 5-1h4q3 1 6.5 3t12 6q8.5 4 12.5 7 23 13 36 24 3 1 19.5 17t23.5 24z"/>
</svg>